<svg xmlns="http://www.w3.org/2000/svg" width="564" height="652" viewBox="0 0 564 652">
  <g id="Groupe_65" data-name="Groupe 65" transform="translate(-1261 -2580)">
    <rect id="Rectangle_24" data-name="Rectangle 24" width="544" height="652" transform="translate(1268 2580)" fill="#9b0067"/>
    <text id="_20_Personnes_deviennent_premiers_habitants_de_VENOKIS" data-name="20
Personnes
deviennent premiers habitants de VENOKIS" transform="translate(1261 2836)" fill="#fff" font-size="100" font-family="CenturyGothic-Bold, Century Gothic" font-weight="700"><tspan x="225.994" y="99">20</tspan><tspan x="37.981" y="221">Personnes</tspan><tspan font-size="40"><tspan x="82.801" y="284">deviennent premiers </tspan><tspan x="71.209" y="334">habitants de VENOKIS</tspan></tspan></text>
    <path id="people" d="M207.188,167.75S221,167.75,221,153.938s-13.812-55.25-69.062-55.25-69.062,41.438-69.062,55.25S96.688,167.75,96.688,167.75Zm-110.2-13.812q-.153-.021-.3-.055c.014-3.646,2.307-14.227,10.5-23.757,7.625-8.937,21.023-17.625,44.752-17.625s37.114,8.7,44.752,17.625c8.191,9.531,10.47,20.125,10.5,23.758l-.111.028q-.1.016-.193.028Zm54.946-82.875a27.625,27.625,0,1,0-27.625-27.625A27.625,27.625,0,0,0,151.938,71.063Zm41.438-27.625A41.437,41.437,0,1,1,151.938,2a41.437,41.437,0,0,1,41.437,41.438ZM95.8,102.555a81.217,81.217,0,0,0-16.989-3.412q-4.862-.462-9.752-.456C13.813,98.688,0,140.125,0,153.938q0,13.819,13.813,13.813H72.046a30.912,30.912,0,0,1-2.984-13.812c0-13.951,5.207-28.205,15.056-40.111A73.087,73.087,0,0,1,95.8,102.555ZM67.958,112.5A75.872,75.872,0,0,0,55.25,153.937H13.813c0-3.591,2.265-14.227,10.5-23.813,7.528-8.785,20.608-17.349,43.648-17.611ZM20.719,50.344A41.438,41.438,0,1,1,62.156,91.781,41.437,41.437,0,0,1,20.719,50.344ZM62.156,22.719A27.625,27.625,0,1,0,89.781,50.344,27.625,27.625,0,0,0,62.156,22.719Z" transform="translate(1425 2633)" fill="#fff"/>
  </g>
</svg>
