<svg xmlns="http://www.w3.org/2000/svg" width="33.667" height="33.667" viewBox="0 0 33.667 33.667">
  <path id="Tracé_35" data-name="Tracé 35" d="M-1149.291,2000.371h-2.366a10.993,10.993,0,0,0-1.546-3.69l.008-.012,1.673-1.675a.953.953,0,0,0,0-1.348l-2.909-2.91a.952.952,0,0,0-1.347,0l-1.691,1.673a13.567,13.567,0,0,0-3.715-1.511v-2.377a.969.969,0,0,0-.915-1.006h-4.115a1.1,1.1,0,0,0-1.06,1.006v2.366a11.963,11.963,0,0,0-3.629,1.545l.019-.008-1.66-1.673a.944.944,0,0,0-1.34,0l-2.906,2.91a.952.952,0,0,0,0,1.347l1.674,1.669a13.427,13.427,0,0,0-1.51,3.693H-1179a.994.994,0,0,0-.994.959v4.115a.93.93,0,0,0,.994.881h2.366a11.156,11.156,0,0,0,1.545,3.718l-.008.026-1.673,1.682a.958.958,0,0,0,0,1.352l2.91,2.912a.952.952,0,0,0,1.347,0l1.608-1.672a11.577,11.577,0,0,0,3.632,1.512v2.377a1.07,1.07,0,0,0,1.082.95h4.115a.9.9,0,0,0,.893-.95v-2.366a14.1,14.1,0,0,0,3.712-1.545l.022.008,1.68,1.673a.956.956,0,0,0,1.35,0l2.911-2.909a.952.952,0,0,0,0-1.347l-1.672-1.7a13.6,13.6,0,0,0,1.511-3.721h2.377a.92.92,0,0,0,.963-.9v-4.115A.948.948,0,0,0-1149.291,2000.371Zm-17.242,8.452c-.057-.025-.114-.051-.17-.078q-.259-.125-.5-.273-.122-.074-.24-.154t-.232-.165l-.113-.086a5.981,5.981,0,0,1-.609-.551,5.951,5.951,0,0,1-.528-.63q-.1-.133-.186-.272a5.9,5.9,0,0,1-.467-.877,5.9,5.9,0,0,1-.476-2.331,5.91,5.91,0,0,1,1.941-4.386q.158-.143.326-.275l.113-.087q.114-.085.232-.165a5.89,5.89,0,0,1,.744-.428q.129-.062.262-.119a5.906,5.906,0,0,1,2.306-.466,5.9,5.9,0,0,1,2.7.648q.128.065.252.137.186.107.363.227.118.08.232.165l.113.087q.112.088.219.181.161.14.312.29c.067.067.133.136.2.206a5.89,5.89,0,0,1,.446.554q.083.116.16.236t.148.244q.107.186.2.381a5.9,5.9,0,0,1,.584,2.569,5.934,5.934,0,0,1-.187,1.481q-.037.142-.08.281c-.043.139-.092.276-.145.411q-.053.135-.112.266c-.026.058-.054.116-.082.173q-.084.172-.179.338-.071.124-.148.244c-.041.064-.083.126-.127.188s-.077.109-.117.163l-.087.113q-.088.112-.181.219l-.094.106c-.064.07-.129.139-.2.206l-.1.1q-.206.2-.43.372l-.113.086q-.114.086-.232.165t-.24.154l-.123.073q-.124.071-.252.137a5.9,5.9,0,0,1-2.7.648,5.907,5.907,0,0,1-2.211-.427Q-1166.441,2008.864-1166.533,2008.823Z" transform="translate(1180.995 -1986.515)" fill="none" stroke="#fff" stroke-miterlimit="10" stroke-width="2" opacity="0.61"/>
</svg>
