<svg xmlns="http://www.w3.org/2000/svg" width="168.746" height="168.75" viewBox="0 0 168.746 168.75">
  <g id="clock-history" transform="translate(0.004)">
    <path id="Tracé_36" data-name="Tracé 36" d="M13.431,10.746q-2.711-.2-5.431-.2V0q3.109,0,6.211.232l-.78,10.514Zm21.133,4.745a73.851,73.851,0,0,0-10.387-3.153L26.486,2.046A83.3,83.3,0,0,1,38.36,5.652l-3.8,9.839Zm14.447,7.487q-2.262-1.508-4.629-2.847l5.2-9.175a84.628,84.628,0,0,1,10.324,6.9l-6.485,8.32q-2.145-1.673-4.408-3.185Zm19.34,18.876a73.711,73.711,0,0,0-6.886-8.394L69.1,26.184a87.99,87.99,0,0,1,7.877,9.6ZM76.2,56.112q-1.038-2.508-2.257-4.935l9.417-4.745A84.112,84.112,0,0,1,88.1,57.9l-10.018,3.3q-.85-2.58-1.888-5.093ZM81.786,82.55a73.724,73.724,0,0,0-1.055-10.809l10.387-1.793a84.893,84.893,0,0,1,1.223,12.338L81.8,82.55ZM80.4,98.769c.348-1.793.633-3.575.854-5.378l10.472,1.3a83.909,83.909,0,0,1-2.425,12.18l-10.166-2.816q.728-2.61,1.265-5.283ZM70.366,123.856a74.493,74.493,0,0,0,5.125-9.575l9.639,4.271A85.113,85.113,0,0,1,79.277,129.5ZM60.2,136.563q1.93-1.93,3.691-3.986l7.993,6.886q-2.03,2.354-4.229,4.556L60.2,136.563Z" transform="translate(76.4)" fill="#fff"/>
    <path id="Tracé_37" data-name="Tracé 37" d="M84.4,10.545a73.818,73.818,0,1,0,52.2,126.018l7.456,7.456A84.374,84.374,0,1,1,84.4,0Z" transform="translate(0 0)" fill="#fff"/>
    <path id="Tracé_38" data-name="Tracé 38" d="M12.273,3a5.273,5.273,0,0,1,5.273,5.273V63.214L51.8,82.787a5.273,5.273,0,0,1-5.231,9.153L9.657,70.849A5.273,5.273,0,0,1,7,66.273v-58A5.273,5.273,0,0,1,12.273,3Z" transform="translate(66.855 28.636)" fill="#fff"/>
  </g>
</svg>
