<svg id="calendar-check" xmlns="http://www.w3.org/2000/svg" width="166" height="166" viewBox="0 0 166 166">
  <path id="Tracé_39" data-name="Tracé 39" d="M61.054,8.523a5.188,5.188,0,0,1,0,7.345L29.929,46.994a5.187,5.187,0,0,1-7.345,0L7.021,31.431a5.194,5.194,0,1,1,7.346-7.345l11.89,11.9L53.708,8.523a5.187,5.187,0,0,1,7.346,0Z" transform="translate(51.557 65.617)" fill="#fff"/>
  <path id="Tracé_40" data-name="Tracé 40" d="M36.313,0A5.188,5.188,0,0,1,41.5,5.188v5.188h83V5.188a5.188,5.188,0,0,1,10.375,0v5.188H145.25A20.75,20.75,0,0,1,166,31.125V145.25A20.75,20.75,0,0,1,145.25,166H20.75A20.75,20.75,0,0,1,0,145.25V31.125a20.75,20.75,0,0,1,20.75-20.75H31.125V5.188A5.187,5.187,0,0,1,36.313,0ZM10.375,41.5V145.25A10.375,10.375,0,0,0,20.75,155.625h124.5a10.375,10.375,0,0,0,10.375-10.375V41.5Z" fill="#fff"/>
</svg>
