<svg id="Groupe_5" data-name="Groupe 5" xmlns="http://www.w3.org/2000/svg" width="255.894" height="47.397" viewBox="0 0 255.894 47.397">
  <g id="Groupe_1" data-name="Groupe 1">
    <path id="Tracé_2" data-name="Tracé 2" d="M380.28,113.291l22.73,46.549h-2.121L392.282,142.5H367.976L359.49,159.84h-1.878Zm-.181,4.181-11.335,23.275h22.79Z" transform="translate(-357.612 -113.291)" fill="#2f2f2f"/>
    <path id="Tracé_3" data-name="Tracé 3" d="M431.255,158.128v1.759H408.4l20-43.7h-20v-1.758h23.031l-20.062,43.7Z" transform="translate(-359.674 -113.337)" fill="#2f2f2f"/>
    <path id="Tracé_4" data-name="Tracé 4" d="M452.419,160.734h-.606a12.764,12.764,0,0,1-9.425-3.879,13.284,13.284,0,0,1-3.849-9.758V114.428h2v32.608a11.691,11.691,0,0,0,3.334,8.546,11.706,11.706,0,0,0,16.456.03,11.728,11.728,0,0,0,3.3-8.576V114.428h2v32.547a13.468,13.468,0,0,1-3.848,9.849A12.649,12.649,0,0,1,452.419,160.734Z" transform="translate(-360.898 -113.337)" fill="#2f2f2f"/>
    <path id="Tracé_5" data-name="Tracé 5" d="M476.254,114.428h2.606a14.371,14.371,0,0,1,10.334,4.334,13.756,13.756,0,0,1,4.456,10.182A13.533,13.533,0,0,1,489.1,139.1q-4.546,4.3-9.758,4.3h-.424l15.637,16.486h-2.607L478.193,145.46v14.426h-1.939Zm1.939,27.213h1.092a11.9,11.9,0,0,0,8.666-3.757,12.824,12.824,0,0,0-8.969-21.7h-.789Z" transform="translate(-362.429 -113.337)" fill="#2f2f2f"/>
    <path id="Tracé_6" data-name="Tracé 6" d="M622.363,114.428v45.458h-2V116.792l-21.455,43.942-21.336-43.942v43.094h-1.818V114.428h2.909l20.426,41.942,20.486-41.942Z" transform="translate(-366.47 -113.337)" fill="#2f2f2f"/>
  </g>
  <g id="Groupe_4" data-name="Groupe 4" transform="translate(138.094 1.141)">
    <g id="Groupe_2" data-name="Groupe 2">
      <rect id="Rectangle_1" data-name="Rectangle 1" width="28.462" height="1.919" transform="translate(0.959 23.434)" fill="#0d988c"/>
      <path id="Tracé_7" data-name="Tracé 7" d="M532.218,139.906" transform="translate(-502.796 -115.512)" fill="#0d988c" stroke="#1a1818" stroke-miterlimit="10" stroke-width="2"/>
      <path id="Tracé_8" data-name="Tracé 8" d="M532.218,115.48" transform="translate(-502.796 -114.521)" fill="#0d988c" stroke="#1a1818" stroke-miterlimit="10" stroke-width="2"/>
      <path id="Tracé_9" data-name="Tracé 9" d="M532.218,160.81" transform="translate(-502.796 -116.361)" fill="#0d988c" stroke="#1a1818" stroke-miterlimit="10" stroke-width="2"/>
      <path id="Tracé_10" data-name="Tracé 10" d="M530.973,159.888H501.551V114.48h29.422V116.4h-27.5v41.57h27.5Z" transform="translate(-501.551 -114.48)" fill="#0d988c"/>
      <rect id="Rectangle_2" data-name="Rectangle 2" width="1.919" height="15.349" transform="translate(28.262 9.965)" fill="#0d988c"/>
    </g>
    <g id="Groupe_3" data-name="Groupe 3" transform="translate(34.579)">
      <rect id="Rectangle_3" data-name="Rectangle 3" width="28.462" height="1.919" transform="translate(0.759 20.054)" fill="#0d988c"/>
      <path id="Tracé_11" data-name="Tracé 11" d="M538.384,136.383" transform="translate(-537.625 -115.369)" fill="#0d988c" stroke="#1a1818" stroke-miterlimit="10" stroke-width="2"/>
      <path id="Tracé_12" data-name="Tracé 12" d="M538.384,160.81" transform="translate(-537.625 -116.361)" fill="#0d988c" stroke="#1a1818" stroke-miterlimit="10" stroke-width="2"/>
      <path id="Tracé_13" data-name="Tracé 13" d="M538.384,115.48" transform="translate(-537.625 -114.521)" fill="#0d988c" stroke="#1a1818" stroke-miterlimit="10" stroke-width="2"/>
      <path id="Tracé_14" data-name="Tracé 14" d="M567.806,159.888H538.384v-1.919h27.5V116.4h-27.5V114.48h29.422Z" transform="translate(-537.625 -114.48)" fill="#0d988c"/>
      <rect id="Rectangle_4" data-name="Rectangle 4" width="1.919" height="15.311" transform="translate(0 20.131)" fill="#0d988c"/>
    </g>
  </g>
</svg>
